<?xml version="1.0" encoding="utf-8"?>
<!-- Generator: Adobe Illustrator 24.0.2, SVG Export Plug-In . SVG Version: 6.00 Build 0)  -->
<svg version="1.1" id="Layer_1" xmlns="http://www.w3.org/2000/svg" xmlns:xlink="http://www.w3.org/1999/xlink" x="0px" y="0px"
	 viewBox="0 0 1181 1181" style="enable-background:new 0 0 1181 1181;" xml:space="preserve">
<style type="text/css">
	.st0{fill:#07112A;}
	.st1{fill:#E39E02;}
</style>
<g>
	<g>
		<path class="st0" d="M0.5,0.5h1181v1181H0.5V0.5z M339.46,152.41c-30.09,17.59-55.34,43.34-72.25,73.82
			c-13.89,24.89-22.18,52.87-24.12,81.3c-0.98,22.62-0.63,45.28-0.68,67.92c0,142.7,0,285.41,0,428.11
			c-0.14,14.3,0.37,28.62-0.44,42.91c-0.72,16.3,13.31,31.41,29.52,32.23c48.33,0.03,96.66,0,144.98,0.02
			c12.37-0.29,23.07-11.93,22.41-24.28c0.64-12.31-10.03-23.89-22.36-24.22c-39.82,0-79.65,0.01-119.48,0
			c0.03-94.77,0.01-189.54,0.01-284.31c94.36-0.02,188.73,0,283.09-0.01c-0.01,100.86,0.02,201.72-0.01,302.58
			c0.41,15.82,14.51,29.92,30.35,30.24c41.35-0.02,82.71,0,124.07-0.01c10.63-0.31,21.26,0.7,31.89,0.09
			c25.62-0.37,51.35-4.3,75.55-12.88c29.2-10.25,55.72-28.71,74.21-53.67c25.48-34.16,36.46-77.55,35.78-119.77
			c-0.7-15.15-14.32-28.48-29.52-28.66c-45.64,0.03-91.28,0-136.92,0.01c-16.02-0.17-32.06,0.42-48.06-0.45
			c-11.07-0.22-21.81,6.35-27.04,16.04c-3.81,6.6-4.52,14.54-3.28,21.95c2.16,11.17,10.92,20.71,21.88,23.81
			c6.32,2.05,13,0.71,19.5,0.68c48.83,0.04,97.67-0.02,146.5,0.03c-4.38,17.43-11.71,34.26-22.57,48.65
			c-10.79,14.59-25.04,26.47-40.96,35.13c-23.54,12.9-50.3,19.22-77,20.5c-32.67,0.16-65.34-0.06-98,0.11
			c-7.64,0.59-15.3,0.27-22.95,0.35c0.02-94.91,0-189.82,0.01-284.74c33.63,0.03,67.27,0.01,100.9,0.01
			c10.73,0.08,21.5-0.4,32.18,0.92c33.3,4.04,65.77,18.23,89.72,41.99c6.01,6.31,14.1,11.34,23.11,10.97
			c8.82,0.6,17.59-3.33,23.42-9.88c10.03-10.59,10.37-28.71,0.89-39.75c-9.42-9.71-19.96-18.34-31.43-25.52
			c-32.72-20.77-71.25-31.64-109.87-32.98c-42.85-0.03-85.69,0.07-128.54-0.06c0.05-54.69,0.04-109.38,0-164.07
			c-0.65-7.33-0.06-14.7-0.83-22.02c-2.98-39.35-18.47-77.57-43.52-108.04c-27.48-33.78-66.6-57.88-109.16-67.14
			c-18.28-4.18-37.12-5-55.79-4.06C394.73,128.17,365.34,137.29,339.46,152.41z M771.87,980.97c-8.34-8.05-22.18-7.82-31.53-1.67
			c-14.97,9.82-15.47,34.77-1.35,45.56c9.55,7.33,25.01,7.91,33.6-1.24c-0.03,1.96-0.03,3.95-0.03,5.94c5,0,10,0.01,15,0
			c0.01-24.78,0.01-49.56,0-74.34c-5.23-0.01-10.46,0.02-15.69-0.04C771.76,963.77,771.77,972.37,771.87,980.97z M557.42,973.39
			c-10.44,14.29-8.36,36.36,5.18,47.98c14.95,13.07,38.81,11.87,54.47,0.7c0.89-9.47,0.11-19.19,0.36-28.76
			c-4.96-0.01-9.91-0.01-14.86,0c0.01,6.86-0.08,13.72,0.06,20.58c-7.37,3.59-16.47,4.11-23.89,0.39
			c-13.14-6.49-15.24-26.54-4.68-36.28c9.52-8.7,25.73-7.43,34.31,2.03c3.49-3.24,7-6.44,10.48-9.69
			C603.14,952.93,571.22,954.26,557.42,973.39z M325.72,959.51c-10.41,23.35-20.82,46.69-31.22,70.05c5.58,0.01,11.16,0.01,16.75,0
			c2.08-5,4.16-10,6.24-14.99c10.76-0.03,21.53,0.04,32.3-0.04c2.1,4.94,4.19,9.88,6.12,14.89c5.76,0.27,11.52,0.11,17.29,0.14
			c-10.36-23.33-20.95-46.56-31.18-69.94C336.59,959.4,331.15,959.52,325.72,959.51z M448.57,963.71
			c-0.01,4.36-0.01,8.72-0.01,13.08c-2.8,0-5.59,0.02-8.38,0.07c0.04,4.02,0.04,8.05,0.04,12.08c2.77-0.01,5.55-0.01,8.33,0
			c0.1,8.2-0.16,16.42,0.12,24.62c0.19,6.04,3.52,12.1,9.17,14.63c7.47,3.3,16.49,2.85,23.66-1.04c-1.32-3.73-2.78-7.41-4.14-11.12
			c-3.13,1.48-7.01,2.74-10.25,0.84c-2.21-1.3-2.88-4.02-2.82-6.4c-0.06-7.18,0.03-14.35-0.01-21.52c4.47-0.02,8.94-0.01,13.41-0.02
			c0-4.04,0-8.08,0-12.11c-4.47-0.02-8.94-0.02-13.41-0.01c0.01-4.37,0-8.74,0-13.09C459.04,963.71,453.8,963.71,448.57,963.71z
			 M508.98,975.2c-6.69,0.91-13.12,4.1-17.63,9.17c-8.78,9.64-9.01,25.79-0.56,35.71c11.2,13.49,34.43,13.78,46.21,0.9
			c9.7-10.47,9.15-28.81-1.53-38.41C528.46,976.03,518.3,973.85,508.98,975.2z M377.81,975.64c-0.01,8.94,0.01,17.88-0.01,26.82
			c-0.01,4.97,0.01,10.11,1.82,14.83c1.59,4.32,4.74,8.1,8.86,10.24c9.27,4.74,21.7,3.7,29.11-3.98c-0.02,1.98-0.03,4-0.03,6.01
			c4.96,0.01,9.91,0,14.87,0c0.01-17.97,0.01-35.95,0-53.92c-5.24-0.01-10.48-0.02-15.72,0c-0.04,9.26,0.08,18.52-0.03,27.77
			c0,4.9-2.18,10.41-7.03,12.33c-4.3,1.67-9.96,1.45-13.24-2.15c-2.67-3-2.82-7.24-2.86-11.04c0.02-8.97,0.02-17.94,0.01-26.92
			C388.31,975.63,383.06,975.62,377.81,975.64z M631.14,975.64c-0.01,17.97-0.01,35.94,0,53.92c5.24,0.01,10.48,0.01,15.72,0
			c0-7.7,0.02-15.4-0.01-23.1c-0.11-4.77,0.22-10.25,3.99-13.69c3.67-3.55,9.04-3.79,13.85-3.51c0-4.85,0.01-9.69-0.01-14.53
			c-6.88,0.07-13.99,2.19-18.57,7.6c0.05-2.24,0.08-4.46,0.1-6.69C641.18,975.62,636.16,975.63,631.14,975.64z M668.57,981.28
			c1.87,3.66,3.75,7.31,5.62,10.98c6.44-4.24,14.88-6.44,22.33-3.74c3.86,1.39,5.4,5.51,5.85,9.26c-9.62,0.43-20.11-1.43-28.86,3.57
			c-8.05,4.43-9.09,16.65-2.86,23.04c5.64,5.94,14.7,6.84,22.37,5.35c4.12-0.73,7.61-3.26,10.2-6.47c-0.07,2.09-0.09,4.18-0.1,6.29
			c4.91,0.01,9.82,0.01,14.74,0c0.01-10.04,0-20.08,0.02-30.11c0.01-5.57-0.83-11.48-4.25-16.05c-3.59-4.77-9.45-7.27-15.22-8.1
			C688.19,973.9,677.34,975.69,668.57,981.28z M804.3,984.25c-9.39,10.46-8.92,28.43,1.51,38.02c7.33,6.92,18.05,9.01,27.81,7.77
			c6.46-0.71,12.7-3.59,17.12-8.41c-2.79-3-5.57-6.01-8.33-9.02c-6.06,5.58-15.68,6.82-22.9,2.85c-3.23-1.73-4.96-5.09-6.22-8.36
			c13.66-0.08,27.31-0.01,40.97-0.04c0.72-7.66-0.45-15.9-5.41-22.04C838.32,971.53,815.42,971.49,804.3,984.25z"/>
	</g>
	<path class="st0" d="M387.59,188.87c24.1-9.2,50.72-11.64,76.09-6.98c37.71,6.58,71.96,29.65,92.92,61.58
		c10.89,16.36,18.26,35.06,21.4,54.46c2.11,12.07,2.2,24.38,2.14,36.6c0.02,52.36-0.04,104.72,0.03,157.07
		c-94.37,0.11-188.75,0.02-283.12,0.05c0.03-54.4-0.03-108.8,0.03-163.2c0-2.32-0.43-4.61-0.67-6.91
		c-0.01-26.25,7.26-52.56,21.28-74.8C333.9,220.56,358.81,199.86,387.59,188.87z"/>
	<path class="st0" d="M322.66,1002.14c3.71-8.81,7.22-17.69,11.09-26.42c3.63,8.81,7.3,17.6,10.93,26.42
		C337.34,1002.13,330,1002.13,322.66,1002.14z"/>
	<path class="st0" d="M816.69,990.7c5.21-5.47,15.26-5.3,20.08,0.62c1.58,1.83,2.26,4.21,3.08,6.46c-8.92,0.04-17.85,0.05-26.77,0
		C813.97,995.28,814.76,992.61,816.69,990.7z"/>
	<path class="st0" d="M510.92,988.14c5.86-1.48,12.66,1.14,15.33,6.72c2.64,5.59,2.34,12.89-1.56,17.84
		c-4.62,5.85-14.27,6.32-19.63,1.25C497.2,1006.67,499.74,990.54,510.92,988.14z"/>
	<path class="st0" d="M754.94,988.18c5.86-1.57,12.64,1.08,15.42,6.57c3,6.03,2.4,14.26-2.6,19.09c-4.79,4.65-13.12,4.8-18.14,0.44
		C741.4,1007.21,743.7,990.77,754.94,988.18z"/>
	<path class="st0" d="M685.74,1007.86c5.34-1.46,10.97-0.57,16.45-0.79c-0.13,2.1,0.2,4.29-0.45,6.34
		c-2.95,6.28-12.01,8.21-17.6,4.47C680.57,1015.36,681.57,1009.15,685.74,1007.86z"/>
</g>
<g>
	<g>
		<path class="st1" d="M339.46,152.41c25.88-15.12,55.27-24.24,85.19-26.15c18.67-0.94,37.51-0.12,55.79,4.06
			c42.56,9.26,81.68,33.36,109.16,67.14c25.05,30.47,40.54,68.69,43.52,108.04c0.77,7.32,0.18,14.69,0.83,22.02
			c0.04,54.69,0.05,109.38,0,164.07c42.85,0.13,85.69,0.03,128.54,0.06c38.62,1.34,77.15,12.21,109.87,32.98
			c11.47,7.18,22.01,15.81,31.43,25.52c9.48,11.04,9.14,29.16-0.89,39.75c-5.83,6.55-14.6,10.48-23.42,9.88
			c-9.01,0.37-17.1-4.66-23.11-10.97c-23.95-23.76-56.42-37.95-89.72-41.99c-10.68-1.32-21.45-0.84-32.18-0.92
			c-33.63,0-67.27,0.02-100.9-0.01c-0.01,94.92,0.01,189.83-0.01,284.74c7.65-0.08,15.31,0.24,22.95-0.35
			c32.66-0.17,65.33,0.05,98-0.11c26.7-1.28,53.46-7.6,77-20.5c15.92-8.66,30.17-20.54,40.96-35.13
			c10.86-14.39,18.19-31.22,22.57-48.65c-48.83-0.05-97.67,0.01-146.5-0.03c-6.5,0.03-13.18,1.37-19.5-0.68
			c-10.96-3.1-19.72-12.64-21.88-23.81c-1.24-7.41-0.53-15.35,3.28-21.95c5.23-9.69,15.97-16.26,27.04-16.04
			c16,0.87,32.04,0.28,48.06,0.45c45.64-0.01,91.28,0.02,136.92-0.01c15.2,0.18,28.82,13.51,29.52,28.66
			c0.68,42.22-10.3,85.61-35.78,119.77c-18.49,24.96-45.01,43.42-74.21,53.67c-24.2,8.58-49.93,12.51-75.55,12.88
			c-10.63,0.61-21.26-0.4-31.89-0.09c-41.36,0.01-82.72-0.01-124.07,0.01c-15.84-0.32-29.94-14.42-30.35-30.24
			c0.03-100.86,0-201.72,0.01-302.58c-94.36,0.01-188.73-0.01-283.09,0.01c0,94.77,0.02,189.54-0.01,284.31
			c39.83,0.01,79.66,0,119.48,0c12.33,0.33,23,11.91,22.36,24.22c0.66,12.35-10.04,23.99-22.41,24.28
			c-48.32-0.02-96.65,0.01-144.98-0.02c-16.21-0.82-30.24-15.93-29.52-32.23c0.81-14.29,0.3-28.61,0.44-42.91
			c0-142.7,0-285.41,0-428.11c0.05-22.64-0.3-45.3,0.68-67.92c1.94-28.43,10.23-56.41,24.12-81.3
			C284.12,195.75,309.37,170,339.46,152.41z M387.59,188.87c-28.78,10.99-53.69,31.69-69.9,57.87
			c-14.02,22.24-21.29,48.55-21.28,74.8c0.24,2.3,0.67,4.59,0.67,6.91c-0.06,54.4,0,108.8-0.03,163.2
			c94.37-0.03,188.75,0.06,283.12-0.05c-0.07-52.35-0.01-104.71-0.03-157.07c0.06-12.22-0.03-24.53-2.14-36.6
			c-3.14-19.4-10.51-38.1-21.4-54.46c-20.96-31.93-55.21-55-92.92-61.58C438.31,177.23,411.69,179.67,387.59,188.87z"/>
	</g>
	<g>
		<path class="st1" d="M771.87,980.97c-0.1-8.6-0.11-17.2,0-25.79c5.23,0.06,10.46,0.03,15.69,0.04c0.01,24.78,0.01,49.56,0,74.34
			c-5,0.01-10,0-15,0c0-1.99,0-3.98,0.03-5.94c-8.59,9.15-24.05,8.57-33.6,1.24c-14.12-10.79-13.62-35.74,1.35-45.56
			C749.69,973.15,763.53,972.92,771.87,980.97z M754.94,988.18c-11.24,2.59-13.54,19.03-5.32,26.1c5.02,4.36,13.35,4.21,18.14-0.44
			c5-4.83,5.6-13.06,2.6-19.09C767.58,989.26,760.8,986.61,754.94,988.18z"/>
	</g>
	<path class="st1" d="M557.42,973.39c13.8-19.13,45.72-20.46,61.43-3.05c-3.48,3.25-6.99,6.45-10.48,9.69
		c-8.58-9.46-24.79-10.73-34.31-2.03c-10.56,9.74-8.46,29.79,4.68,36.28c7.42,3.72,16.52,3.2,23.89-0.39
		c-0.14-6.86-0.05-13.72-0.06-20.58c4.95-0.01,9.9-0.01,14.86,0c-0.25,9.57,0.53,19.29-0.36,28.76
		c-15.66,11.17-39.52,12.37-54.47-0.7C549.06,1009.75,546.98,987.68,557.42,973.39z"/>
	<g>
		<path class="st1" d="M325.72,959.51c5.43,0.01,10.87-0.11,16.3,0.11c10.23,23.38,20.82,46.61,31.18,69.94
			c-5.77-0.03-11.53,0.13-17.29-0.14c-1.93-5.01-4.02-9.95-6.12-14.89c-10.77,0.08-21.54,0.01-32.3,0.04
			c-2.08,4.99-4.16,9.99-6.24,14.99c-5.59,0.01-11.17,0.01-16.75,0C304.9,1006.2,315.31,982.86,325.72,959.51z M322.66,1002.14
			c7.34-0.01,14.68-0.01,22.02,0c-3.63-8.82-7.3-17.61-10.93-26.42C329.88,984.45,326.37,993.33,322.66,1002.14z"/>
	</g>
	<path class="st1" d="M448.57,963.71c5.23,0,10.47,0,15.71,0.01c0,4.35,0.01,8.72,0,13.09c4.47-0.01,8.94-0.01,13.41,0.01
		c0,4.03,0,8.07,0,12.11c-4.47,0.01-8.94,0-13.41,0.02c0.04,7.17-0.05,14.34,0.01,21.52c-0.06,2.38,0.61,5.1,2.82,6.4
		c3.24,1.9,7.12,0.64,10.25-0.84c1.36,3.71,2.82,7.39,4.14,11.12c-7.17,3.89-16.19,4.34-23.66,1.04c-5.65-2.53-8.98-8.59-9.17-14.63
		c-0.28-8.2-0.02-16.42-0.12-24.62c-2.78-0.01-5.56-0.01-8.33,0c0-4.03,0-8.06-0.04-12.08c2.79-0.05,5.58-0.07,8.38-0.07
		C448.56,972.43,448.56,968.07,448.57,963.71z"/>
	<g>
		<path class="st1" d="M508.98,975.2c9.32-1.35,19.48,0.83,26.49,7.37c10.68,9.6,11.23,27.94,1.53,38.41
			c-11.78,12.88-35.01,12.59-46.21-0.9c-8.45-9.92-8.22-26.07,0.56-35.71C495.86,979.3,502.29,976.11,508.98,975.2z M510.92,988.14
			c-11.18,2.4-13.72,18.53-5.86,25.81c5.36,5.07,15.01,4.6,19.63-1.25c3.9-4.95,4.2-12.25,1.56-17.84
			C523.58,989.28,516.78,986.66,510.92,988.14z"/>
	</g>
	<path class="st1" d="M377.81,975.64c5.25-0.02,10.5-0.01,15.75-0.01c0.01,8.98,0.01,17.95-0.01,26.92
		c0.04,3.8,0.19,8.04,2.86,11.04c3.28,3.6,8.94,3.82,13.24,2.15c4.85-1.92,7.03-7.43,7.03-12.33c0.11-9.25-0.01-18.51,0.03-27.77
		c5.24-0.02,10.48-0.01,15.72,0c0.01,17.97,0.01,35.95,0,53.92c-4.96,0-9.91,0.01-14.87,0c0-2.01,0.01-4.03,0.03-6.01
		c-7.41,7.68-19.84,8.72-29.11,3.98c-4.12-2.14-7.27-5.92-8.86-10.24c-1.81-4.72-1.83-9.86-1.82-14.83
		C377.82,993.52,377.8,984.58,377.81,975.64z"/>
	<path class="st1" d="M631.14,975.64c5.02-0.01,10.04-0.02,15.07,0c-0.02,2.23-0.05,4.45-0.1,6.69c4.58-5.41,11.69-7.53,18.57-7.6
		c0.02,4.84,0.01,9.68,0.01,14.53c-4.81-0.28-10.18-0.04-13.85,3.51c-3.77,3.44-4.1,8.92-3.99,13.69c0.03,7.7,0.01,15.4,0.01,23.1
		c-5.24,0.01-10.48,0.01-15.72,0C631.13,1011.58,631.13,993.61,631.14,975.64z"/>
	<g>
		<path class="st1" d="M668.57,981.28c8.77-5.59,19.62-7.38,29.84-5.98c5.77,0.83,11.63,3.33,15.22,8.1
			c3.42,4.57,4.26,10.48,4.25,16.05c-0.02,10.03-0.01,20.07-0.02,30.11c-4.92,0.01-9.83,0.01-14.74,0c0.01-2.11,0.03-4.2,0.1-6.29
			c-2.59,3.21-6.08,5.74-10.2,6.47c-7.67,1.49-16.73,0.59-22.37-5.35c-6.23-6.39-5.19-18.61,2.86-23.04
			c8.75-5,19.24-3.14,28.86-3.57c-0.45-3.75-1.99-7.87-5.85-9.26c-7.45-2.7-15.89-0.5-22.33,3.74
			C672.32,988.59,670.44,984.94,668.57,981.28z M685.74,1007.86c-4.17,1.29-5.17,7.5-1.6,10.02c5.59,3.74,14.65,1.81,17.6-4.47
			c0.65-2.05,0.32-4.24,0.45-6.34C696.71,1007.29,691.08,1006.4,685.74,1007.86z"/>
	</g>
	<g>
		<path class="st1" d="M804.3,984.25c11.12-12.76,34.02-12.72,44.55,0.77c4.96,6.14,6.13,14.38,5.41,22.04
			c-13.66,0.03-27.31-0.04-40.97,0.04c1.26,3.27,2.99,6.63,6.22,8.36c7.22,3.97,16.84,2.73,22.9-2.85c2.76,3.01,5.54,6.02,8.33,9.02
			c-4.42,4.82-10.66,7.7-17.12,8.41c-9.76,1.24-20.48-0.85-27.81-7.77C795.38,1012.68,794.91,994.71,804.3,984.25z M816.69,990.7
			c-1.93,1.91-2.72,4.58-3.61,7.08c8.92,0.05,17.85,0.04,26.77,0c-0.82-2.25-1.5-4.63-3.08-6.46
			C831.95,985.4,821.9,985.23,816.69,990.7z"/>
	</g>
</g>
</svg>
